# xmcd
#
# Track frame offsets: 
#        150
#        13610
#        27660
#        43155
#        55615
#        68485
#        82255
#        95330
#        106428
#        119603
#        134008
#        146623
#        160505
#        173428
#        184173
#        197433
#        208530
#        220793
#
# Disc length: 3098 seconds
#
# Revision: 0
# Processed by: cddbd v1.4PL0 Copyright (c) Steve Scherf et al.
# Submitted via: ExactAudioCopy v0.90b3
#
DISCID=fc0c1812
DTITLE=Various Artist - Under The Double Eagle - Great Western Swing 
DTITLE=Bands Of The 1930's Vol. 1
DYEAR=1900
DGENRE=Swing
TTITLE0=Milton Brown And His Musical Brownies - Brownie's Stomp
TTITLE1=Milton Brown And His Musical Brownies - Do The Hula Lou
TTITLE2=Milton Brown And His Musical Brownies - Joe Turner Blues
TTITLE3=Milton Brown And His Musical Brownies - Garbage Man Blues
TTITLE4=Milton Brown And His Musical Brownies - Where You Been So Long
TTITLE4=, Corinne
TTITLE5=Milton Brown And His Musical Brownies - Talking About You
TTITLE6=Milton Brown And His Musical Brownies - Just Sitting On Top Of
TTITLE6=The World
TTITLE7=Milton Brown And His Musical Brownies - Get Along Cindy
TTITLE8=Milton Brown And His Musical Brownies - Loveless Love
TTITLE9=Bill Boyd And His Cowboy Ramblers - I'm Gonna Hop Off The Trai
TTITLE9=n
TTITLE10=Bill Boyd And His Cowboy Ramblers - Ridin' Old Paint And Lead
TTITLE10=in' Old Ball
TTITLE11=Bill Boyd And His Cowboy Ramblers - The Train Song
TTITLE12=Bill Boyd And His Cowboy Ramblers - Under The Double Eagle
TTITLE13=Bill Boyd And His Cowboy Ramblers - Evil In You Children
TTITLE14=Bill Boyd And His Cowboy Ramblers - When The Sun Goes Down Ag
TTITLE14=ain
TTITLE15=Bill Boyd And His Cowboy Ramblers - The Sweetest Girl
TTITLE16=Bill Boyd And His Cowboy Ramblers - I Can't Tame Wild Women
TTITLE17=Bill Boyd And His Cowboy Ramblers - Get Aboard That Southbund
TTITLE17=Train
EXTD=
EXTT0=
EXTT1=
EXTT2=
EXTT3=
EXTT4=
EXTT5=
EXTT6=
EXTT7=
EXTT8=
EXTT9=
EXTT10=
EXTT11=
EXTT12=
EXTT13=
EXTT14=
EXTT15=
EXTT16=
EXTT17=
PLAYORDER=
